<svg width="927" height="432" viewBox="0 0 927 432" fill="none" xmlns="http://www.w3.org/2000/svg">
<path class="dots" d="M12.2 24.1C18.6065 24.1 23.8 18.9065 23.8 12.5C23.8 6.0935 18.6065 0.900024 12.2 0.900024C5.79351 0.900024 0.599976 6.0935 0.599976 12.5C0.599976 18.9065 5.79351 24.1 12.2 24.1Z" fill="#BDBEC0"/>
<path class="dots" d="M87.5 24.1C93.9065 24.1 99.1 18.9065 99.1 12.5C99.1 6.0935 93.9065 0.900024 87.5 0.900024C81.0935 0.900024 75.9 6.0935 75.9 12.5C75.9 18.9065 81.0935 24.1 87.5 24.1Z" fill="#BDBEC0"/>
<path class="dots" d="M162.7 24.1C169.107 24.1 174.3 18.9065 174.3 12.5C174.3 6.0935 169.107 0.900024 162.7 0.900024C156.294 0.900024 151.1 6.0935 151.1 12.5C151.1 18.9065 156.294 24.1 162.7 24.1Z" fill="#BDBEC0"/>
<path class="dots" d="M237.9 24.1C244.307 24.1 249.5 18.9065 249.5 12.5C249.5 6.0935 244.307 0.900024 237.9 0.900024C231.494 0.900024 226.3 6.0935 226.3 12.5C226.3 18.9065 231.494 24.1 237.9 24.1Z" fill="#BDBEC0"/>
<path class="dots" d="M313.2 24.1C319.607 24.1 324.8 18.9065 324.8 12.5C324.8 6.0935 319.607 0.900024 313.2 0.900024C306.794 0.900024 301.6 6.0935 301.6 12.5C301.6 18.9065 306.794 24.1 313.2 24.1Z" fill="#BDBEC0"/>
<path class="dots" d="M388.4 24.1C394.807 24.1 400 18.9065 400 12.5C400 6.0935 394.807 0.900024 388.4 0.900024C381.994 0.900024 376.8 6.0935 376.8 12.5C376.8 18.9065 381.994 24.1 388.4 24.1Z" fill="#BDBEC0"/>
<path class="dots" d="M463.6 24.1C470.006 24.1 475.2 18.9065 475.2 12.5C475.2 6.0935 470.006 0.900024 463.6 0.900024C457.193 0.900024 452 6.0935 452 12.5C452 18.9065 457.193 24.1 463.6 24.1Z" fill="#BDBEC0"/>
<path class="dots" d="M538.9 24.1C545.307 24.1 550.5 18.9065 550.5 12.5C550.5 6.0935 545.307 0.900024 538.9 0.900024C532.494 0.900024 527.3 6.0935 527.3 12.5C527.3 18.9065 532.494 24.1 538.9 24.1Z" fill="#BDBEC0"/>
<path class="dots" d="M614.1 24.1C620.506 24.1 625.7 18.9065 625.7 12.5C625.7 6.0935 620.506 0.900024 614.1 0.900024C607.693 0.900024 602.5 6.0935 602.5 12.5C602.5 18.9065 607.693 24.1 614.1 24.1Z" fill="#BDBEC0"/>
<path class="dots" d="M689.3 24.1C695.707 24.1 700.9 18.9065 700.9 12.5C700.9 6.0935 695.707 0.900024 689.3 0.900024C682.894 0.900024 677.7 6.0935 677.7 12.5C677.7 18.9065 682.894 24.1 689.3 24.1Z" fill="#BDBEC0"/>
<path class="dots" d="M764.6 24.1C771.006 24.1 776.2 18.9065 776.2 12.5C776.2 6.0935 771.006 0.900024 764.6 0.900024C758.193 0.900024 753 6.0935 753 12.5C753 18.9065 758.193 24.1 764.6 24.1Z" fill="#BDBEC0"/>
<path class="dots" d="M839.8 24.1C846.207 24.1 851.4 18.9065 851.4 12.5C851.4 6.0935 846.207 0.900024 839.8 0.900024C833.394 0.900024 828.2 6.0935 828.2 12.5C828.2 18.9065 833.394 24.1 839.8 24.1Z" fill="#BDBEC0"/>
<path class="dots" d="M915 24.1C921.407 24.1 926.6 18.9065 926.6 12.5C926.6 6.0935 921.407 0.900024 915 0.900024C908.593 0.900024 903.4 6.0935 903.4 12.5C903.4 18.9065 908.593 24.1 915 24.1Z" fill="#BDBEC0"/>
<path class="dots" d="M12.2 82.2C18.6065 82.2 23.8 77.0065 23.8 70.6C23.8 64.1935 18.6065 59 12.2 59C5.79351 59 0.599976 64.1935 0.599976 70.6C0.599976 77.0065 5.79351 82.2 12.2 82.2Z" fill="#BDBEC0"/>
<path class="dots" d="M87.5 82.2C93.9065 82.2 99.1 77.0065 99.1 70.6C99.1 64.1935 93.9065 59 87.5 59C81.0935 59 75.9 64.1935 75.9 70.6C75.9 77.0065 81.0935 82.2 87.5 82.2Z" fill="#BDBEC0"/>
<path class="dots" d="M162.7 82.2C169.107 82.2 174.3 77.0065 174.3 70.6C174.3 64.1935 169.107 59 162.7 59C156.294 59 151.1 64.1935 151.1 70.6C151.1 77.0065 156.294 82.2 162.7 82.2Z" fill="#BDBEC0"/>
<path class="dots" d="M237.9 82.2C244.307 82.2 249.5 77.0065 249.5 70.6C249.5 64.1935 244.307 59 237.9 59C231.494 59 226.3 64.1935 226.3 70.6C226.3 77.0065 231.494 82.2 237.9 82.2Z" fill="#BDBEC0"/>
<path class="dots" d="M313.2 82.2C319.607 82.2 324.8 77.0065 324.8 70.6C324.8 64.1935 319.607 59 313.2 59C306.794 59 301.6 64.1935 301.6 70.6C301.6 77.0065 306.794 82.2 313.2 82.2Z" fill="#BDBEC0"/>
<path class="dots" d="M388.4 82.2C394.807 82.2 400 77.0065 400 70.6C400 64.1935 394.807 59 388.4 59C381.994 59 376.8 64.1935 376.8 70.6C376.8 77.0065 381.994 82.2 388.4 82.2Z" fill="#BDBEC0"/>
<path class="dots" d="M463.6 82.2C470.006 82.2 475.2 77.0065 475.2 70.6C475.2 64.1935 470.006 59 463.6 59C457.193 59 452 64.1935 452 70.6C452 77.0065 457.193 82.2 463.6 82.2Z" fill="#BDBEC0"/>
<path class="dots" d="M538.9 82.2C545.307 82.2 550.5 77.0065 550.5 70.6C550.5 64.1935 545.307 59 538.9 59C532.494 59 527.3 64.1935 527.3 70.6C527.3 77.0065 532.494 82.2 538.9 82.2Z" fill="#BDBEC0"/>
<path class="dots" d="M614.1 82.2C620.506 82.2 625.7 77.0065 625.7 70.6C625.7 64.1935 620.506 59 614.1 59C607.693 59 602.5 64.1935 602.5 70.6C602.5 77.0065 607.693 82.2 614.1 82.2Z" fill="#BDBEC0"/>
<path class="dots" d="M689.3 82.2C695.707 82.2 700.9 77.0065 700.9 70.6C700.9 64.1935 695.707 59 689.3 59C682.894 59 677.7 64.1935 677.7 70.6C677.7 77.0065 682.894 82.2 689.3 82.2Z" fill="#BDBEC0"/>
<path class="dots" d="M764.6 82.2C771.006 82.2 776.2 77.0065 776.2 70.6C776.2 64.1935 771.006 59 764.6 59C758.193 59 753 64.1935 753 70.6C753 77.0065 758.193 82.2 764.6 82.2Z" fill="#BDBEC0"/>
<path class="dots" d="M839.8 82.2C846.207 82.2 851.4 77.0065 851.4 70.6C851.4 64.1935 846.207 59 839.8 59C833.394 59 828.2 64.1935 828.2 70.6C828.2 77.0065 833.394 82.2 839.8 82.2Z" fill="#BDBEC0"/>
<path class="dots" d="M915 82.2C921.407 82.2 926.6 77.0065 926.6 70.6C926.6 64.1935 921.407 59 915 59C908.593 59 903.4 64.1935 903.4 70.6C903.4 77.0065 908.593 82.2 915 82.2Z" fill="#BDBEC0"/>
<path class="dots" d="M12.2 140.4C18.6065 140.4 23.8 135.207 23.8 128.8C23.8 122.394 18.6065 117.2 12.2 117.2C5.79351 117.2 0.599976 122.394 0.599976 128.8C0.599976 135.207 5.79351 140.4 12.2 140.4Z" fill="#BDBEC0"/>
<path class="dots" d="M87.5 140.4C93.9065 140.4 99.1 135.207 99.1 128.8C99.1 122.394 93.9065 117.2 87.5 117.2C81.0935 117.2 75.9 122.394 75.9 128.8C75.9 135.207 81.0935 140.4 87.5 140.4Z" fill="#BDBEC0"/>
<path class="dots" d="M162.7 140.4C169.107 140.4 174.3 135.207 174.3 128.8C174.3 122.394 169.107 117.2 162.7 117.2C156.294 117.2 151.1 122.394 151.1 128.8C151.1 135.207 156.294 140.4 162.7 140.4Z" fill="#BDBEC0"/>
<path class="dots" d="M237.9 140.4C244.307 140.4 249.5 135.207 249.5 128.8C249.5 122.394 244.307 117.2 237.9 117.2C231.494 117.2 226.3 122.394 226.3 128.8C226.3 135.207 231.494 140.4 237.9 140.4Z" fill="#BDBEC0"/>
<path class="dots" d="M313.2 140.4C319.607 140.4 324.8 135.207 324.8 128.8C324.8 122.394 319.607 117.2 313.2 117.2C306.794 117.2 301.6 122.394 301.6 128.8C301.6 135.207 306.794 140.4 313.2 140.4Z" fill="#BDBEC0"/>
<path class="dots" d="M388.4 140.4C394.807 140.4 400 135.207 400 128.8C400 122.394 394.807 117.2 388.4 117.2C381.994 117.2 376.8 122.394 376.8 128.8C376.8 135.207 381.994 140.4 388.4 140.4Z" fill="#BDBEC0"/>
<path class="dots" d="M463.6 140.4C470.006 140.4 475.2 135.207 475.2 128.8C475.2 122.394 470.006 117.2 463.6 117.2C457.193 117.2 452 122.394 452 128.8C452 135.207 457.193 140.4 463.6 140.4Z" fill="#BDBEC0"/>
<path class="dots" d="M538.9 140.4C545.307 140.4 550.5 135.207 550.5 128.8C550.5 122.394 545.307 117.2 538.9 117.2C532.494 117.2 527.3 122.394 527.3 128.8C527.3 135.207 532.494 140.4 538.9 140.4Z" fill="#BDBEC0"/>
<path class="dots" d="M614.1 140.4C620.506 140.4 625.7 135.207 625.7 128.8C625.7 122.394 620.506 117.2 614.1 117.2C607.693 117.2 602.5 122.394 602.5 128.8C602.5 135.207 607.693 140.4 614.1 140.4Z" fill="#BDBEC0"/>
<path class="dots" d="M689.3 140.4C695.707 140.4 700.9 135.207 700.9 128.8C700.9 122.394 695.707 117.2 689.3 117.2C682.894 117.2 677.7 122.394 677.7 128.8C677.7 135.207 682.894 140.4 689.3 140.4Z" fill="#BDBEC0"/>
<path class="dots" d="M764.6 140.4C771.006 140.4 776.2 135.207 776.2 128.8C776.2 122.394 771.006 117.2 764.6 117.2C758.193 117.2 753 122.394 753 128.8C753 135.207 758.193 140.4 764.6 140.4Z" fill="#BDBEC0"/>
<path class="dots" d="M839.8 140.4C846.207 140.4 851.4 135.207 851.4 128.8C851.4 122.394 846.207 117.2 839.8 117.2C833.394 117.2 828.2 122.394 828.2 128.8C828.2 135.207 833.394 140.4 839.8 140.4Z" fill="#BDBEC0"/>
<path class="dots" d="M915 140.4C921.407 140.4 926.6 135.207 926.6 128.8C926.6 122.394 921.407 117.2 915 117.2C908.593 117.2 903.4 122.394 903.4 128.8C903.4 135.207 908.593 140.4 915 140.4Z" fill="#BDBEC0"/>
<path class="dots" d="M12.2 198.5C18.6065 198.5 23.8 193.307 23.8 186.9C23.8 180.494 18.6065 175.3 12.2 175.3C5.79351 175.3 0.599976 180.494 0.599976 186.9C0.599976 193.307 5.79351 198.5 12.2 198.5Z" fill="#BDBEC0"/>
<path class="dots" d="M87.5 198.5C93.9065 198.5 99.1 193.307 99.1 186.9C99.1 180.494 93.9065 175.3 87.5 175.3C81.0935 175.3 75.9 180.494 75.9 186.9C75.9 193.307 81.0935 198.5 87.5 198.5Z" fill="#BDBEC0"/>
<path class="dots" d="M162.7 198.5C169.107 198.5 174.3 193.307 174.3 186.9C174.3 180.494 169.107 175.3 162.7 175.3C156.294 175.3 151.1 180.494 151.1 186.9C151.1 193.307 156.294 198.5 162.7 198.5Z" fill="#BDBEC0"/>
<path class="dots" d="M237.9 198.5C244.307 198.5 249.5 193.307 249.5 186.9C249.5 180.494 244.307 175.3 237.9 175.3C231.494 175.3 226.3 180.494 226.3 186.9C226.3 193.307 231.494 198.5 237.9 198.5Z" fill="#BDBEC0"/>
<path class="dots" d="M313.2 198.5C319.607 198.5 324.8 193.307 324.8 186.9C324.8 180.494 319.607 175.3 313.2 175.3C306.794 175.3 301.6 180.494 301.6 186.9C301.6 193.307 306.794 198.5 313.2 198.5Z" fill="#BDBEC0"/>
<path class="dots" d="M388.4 198.5C394.807 198.5 400 193.307 400 186.9C400 180.494 394.807 175.3 388.4 175.3C381.994 175.3 376.8 180.494 376.8 186.9C376.8 193.307 381.994 198.5 388.4 198.5Z" fill="#BDBEC0"/>
<path class="dots" d="M463.6 198.5C470.006 198.5 475.2 193.307 475.2 186.9C475.2 180.494 470.006 175.3 463.6 175.3C457.193 175.3 452 180.494 452 186.9C452 193.307 457.193 198.5 463.6 198.5Z" fill="#BDBEC0"/>
<path class="dots" d="M538.9 198.5C545.307 198.5 550.5 193.307 550.5 186.9C550.5 180.494 545.307 175.3 538.9 175.3C532.494 175.3 527.3 180.494 527.3 186.9C527.3 193.307 532.494 198.5 538.9 198.5Z" fill="#BDBEC0"/>
<path class="dots" d="M614.1 198.5C620.506 198.5 625.7 193.307 625.7 186.9C625.7 180.494 620.506 175.3 614.1 175.3C607.693 175.3 602.5 180.494 602.5 186.9C602.5 193.307 607.693 198.5 614.1 198.5Z" fill="#BDBEC0"/>
<path class="dots" d="M689.3 198.5C695.707 198.5 700.9 193.307 700.9 186.9C700.9 180.494 695.707 175.3 689.3 175.3C682.894 175.3 677.7 180.494 677.7 186.9C677.7 193.307 682.894 198.5 689.3 198.5Z" fill="#BDBEC0"/>
<path class="dots" d="M764.6 198.5C771.006 198.5 776.2 193.307 776.2 186.9C776.2 180.494 771.006 175.3 764.6 175.3C758.193 175.3 753 180.494 753 186.9C753 193.307 758.193 198.5 764.6 198.5Z" fill="#BDBEC0"/>
<path class="dots" d="M839.8 198.5C846.207 198.5 851.4 193.307 851.4 186.9C851.4 180.494 846.207 175.3 839.8 175.3C833.394 175.3 828.2 180.494 828.2 186.9C828.2 193.307 833.394 198.5 839.8 198.5Z" fill="#BDBEC0"/>
<path class="dots" d="M915 198.5C921.407 198.5 926.6 193.307 926.6 186.9C926.6 180.494 921.407 175.3 915 175.3C908.593 175.3 903.4 180.494 903.4 186.9C903.4 193.307 908.593 198.5 915 198.5Z" fill="#BDBEC0"/>
<path class="dots" d="M12.2 256.7C18.6065 256.7 23.8 251.506 23.8 245.1C23.8 238.693 18.6065 233.5 12.2 233.5C5.79351 233.5 0.599976 238.693 0.599976 245.1C0.599976 251.506 5.79351 256.7 12.2 256.7Z" fill="#BDBEC0"/>
<path class="dots" d="M87.5 256.7C93.9065 256.7 99.1 251.506 99.1 245.1C99.1 238.693 93.9065 233.5 87.5 233.5C81.0935 233.5 75.9 238.693 75.9 245.1C75.9 251.506 81.0935 256.7 87.5 256.7Z" fill="#BDBEC0"/>
<path class="dots" d="M162.7 256.7C169.107 256.7 174.3 251.506 174.3 245.1C174.3 238.693 169.107 233.5 162.7 233.5C156.294 233.5 151.1 238.693 151.1 245.1C151.1 251.506 156.294 256.7 162.7 256.7Z" fill="#BDBEC0"/>
<path class="dots" d="M237.9 256.7C244.307 256.7 249.5 251.506 249.5 245.1C249.5 238.693 244.307 233.5 237.9 233.5C231.494 233.5 226.3 238.693 226.3 245.1C226.3 251.506 231.494 256.7 237.9 256.7Z" fill="#BDBEC0"/>
<path class="dots" d="M313.2 256.7C319.607 256.7 324.8 251.506 324.8 245.1C324.8 238.693 319.607 233.5 313.2 233.5C306.794 233.5 301.6 238.693 301.6 245.1C301.6 251.506 306.794 256.7 313.2 256.7Z" fill="#BDBEC0"/>
<path class="dots" d="M388.4 256.7C394.807 256.7 400 251.506 400 245.1C400 238.693 394.807 233.5 388.4 233.5C381.994 233.5 376.8 238.693 376.8 245.1C376.8 251.506 381.994 256.7 388.4 256.7Z" fill="#BDBEC0"/>
<path class="dots" d="M463.6 256.7C470.006 256.7 475.2 251.506 475.2 245.1C475.2 238.693 470.006 233.5 463.6 233.5C457.193 233.5 452 238.693 452 245.1C452 251.506 457.193 256.7 463.6 256.7Z" fill="#BDBEC0"/>
<path class="dots" d="M538.9 256.7C545.307 256.7 550.5 251.506 550.5 245.1C550.5 238.693 545.307 233.5 538.9 233.5C532.494 233.5 527.3 238.693 527.3 245.1C527.3 251.506 532.494 256.7 538.9 256.7Z" fill="#BDBEC0"/>
<path class="dots" d="M614.1 256.7C620.506 256.7 625.7 251.506 625.7 245.1C625.7 238.693 620.506 233.5 614.1 233.5C607.693 233.5 602.5 238.693 602.5 245.1C602.5 251.506 607.693 256.7 614.1 256.7Z" fill="#BDBEC0"/>
<path class="dots" d="M689.3 256.7C695.707 256.7 700.9 251.506 700.9 245.1C700.9 238.693 695.707 233.5 689.3 233.5C682.894 233.5 677.7 238.693 677.7 245.1C677.7 251.506 682.894 256.7 689.3 256.7Z" fill="#BDBEC0"/>
<path class="dots" d="M764.6 256.7C771.006 256.7 776.2 251.506 776.2 245.1C776.2 238.693 771.006 233.5 764.6 233.5C758.193 233.5 753 238.693 753 245.1C753 251.506 758.193 256.7 764.6 256.7Z" fill="#BDBEC0"/>
<path class="dots" d="M839.8 256.7C846.207 256.7 851.4 251.506 851.4 245.1C851.4 238.693 846.207 233.5 839.8 233.5C833.394 233.5 828.2 238.693 828.2 245.1C828.2 251.506 833.394 256.7 839.8 256.7Z" fill="#BDBEC0"/>
<path class="dots" d="M915 256.7C921.407 256.7 926.6 251.506 926.6 245.1C926.6 238.693 921.407 233.5 915 233.5C908.593 233.5 903.4 238.693 903.4 245.1C903.4 251.506 908.593 256.7 915 256.7Z" fill="#BDBEC0"/>
<path class="dots" d="M12.2 314.8C18.6065 314.8 23.8 309.606 23.8 303.2C23.8 296.793 18.6065 291.6 12.2 291.6C5.79351 291.6 0.599976 296.793 0.599976 303.2C0.599976 309.606 5.79351 314.8 12.2 314.8Z" fill="#BDBEC0"/>
<path class="dots" d="M87.5 314.8C93.9065 314.8 99.1 309.606 99.1 303.2C99.1 296.793 93.9065 291.6 87.5 291.6C81.0935 291.6 75.9 296.793 75.9 303.2C75.9 309.606 81.0935 314.8 87.5 314.8Z" fill="#BDBEC0"/>
<path class="dots" d="M162.7 314.8C169.107 314.8 174.3 309.606 174.3 303.2C174.3 296.793 169.107 291.6 162.7 291.6C156.294 291.6 151.1 296.793 151.1 303.2C151.1 309.606 156.294 314.8 162.7 314.8Z" fill="#BDBEC0"/>
<path class="dots" d="M237.9 314.8C244.307 314.8 249.5 309.606 249.5 303.2C249.5 296.793 244.307 291.6 237.9 291.6C231.494 291.6 226.3 296.793 226.3 303.2C226.3 309.606 231.494 314.8 237.9 314.8Z" fill="#BDBEC0"/>
<path class="dots" d="M313.2 314.8C319.607 314.8 324.8 309.606 324.8 303.2C324.8 296.793 319.607 291.6 313.2 291.6C306.794 291.6 301.6 296.793 301.6 303.2C301.6 309.606 306.794 314.8 313.2 314.8Z" fill="#BDBEC0"/>
<path class="dots" d="M388.4 314.8C394.807 314.8 400 309.606 400 303.2C400 296.793 394.807 291.6 388.4 291.6C381.994 291.6 376.8 296.793 376.8 303.2C376.8 309.606 381.994 314.8 388.4 314.8Z" fill="#BDBEC0"/>
<path class="dots" d="M463.6 314.8C470.006 314.8 475.2 309.606 475.2 303.2C475.2 296.793 470.006 291.6 463.6 291.6C457.193 291.6 452 296.793 452 303.2C452 309.606 457.193 314.8 463.6 314.8Z" fill="#BDBEC0"/>
<path class="dots" d="M538.9 314.8C545.307 314.8 550.5 309.606 550.5 303.2C550.5 296.793 545.307 291.6 538.9 291.6C532.494 291.6 527.3 296.793 527.3 303.2C527.3 309.606 532.494 314.8 538.9 314.8Z" fill="#BDBEC0"/>
<path class="dots" d="M614.1 314.8C620.506 314.8 625.7 309.606 625.7 303.2C625.7 296.793 620.506 291.6 614.1 291.6C607.693 291.6 602.5 296.793 602.5 303.2C602.5 309.606 607.693 314.8 614.1 314.8Z" fill="#BDBEC0"/>
<path class="dots" d="M689.3 314.8C695.707 314.8 700.9 309.606 700.9 303.2C700.9 296.793 695.707 291.6 689.3 291.6C682.894 291.6 677.7 296.793 677.7 303.2C677.7 309.606 682.894 314.8 689.3 314.8Z" fill="#BDBEC0"/>
<path class="dots" d="M764.6 314.8C771.006 314.8 776.2 309.606 776.2 303.2C776.2 296.793 771.006 291.6 764.6 291.6C758.193 291.6 753 296.793 753 303.2C753 309.606 758.193 314.8 764.6 314.8Z" fill="#BDBEC0"/>
<path class="dots" d="M839.8 314.8C846.207 314.8 851.4 309.606 851.4 303.2C851.4 296.793 846.207 291.6 839.8 291.6C833.394 291.6 828.2 296.793 828.2 303.2C828.2 309.606 833.394 314.8 839.8 314.8Z" fill="#BDBEC0"/>
<path class="dots" d="M915 314.8C921.407 314.8 926.6 309.606 926.6 303.2C926.6 296.793 921.407 291.6 915 291.6C908.593 291.6 903.4 296.793 903.4 303.2C903.4 309.606 908.593 314.8 915 314.8Z" fill="#BDBEC0"/>
<path class="dots" d="M12.2 373C18.6065 373 23.8 367.807 23.8 361.4C23.8 354.994 18.6065 349.8 12.2 349.8C5.79351 349.8 0.599976 354.994 0.599976 361.4C0.599976 367.807 5.79351 373 12.2 373Z" fill="#BDBEC0"/>
<path class="dots" d="M87.5 373C93.9065 373 99.1 367.807 99.1 361.4C99.1 354.994 93.9065 349.8 87.5 349.8C81.0935 349.8 75.9 354.994 75.9 361.4C75.9 367.807 81.0935 373 87.5 373Z" fill="#BDBEC0"/>
<path class="dots" d="M162.7 373C169.107 373 174.3 367.807 174.3 361.4C174.3 354.994 169.107 349.8 162.7 349.8C156.294 349.8 151.1 354.994 151.1 361.4C151.1 367.807 156.294 373 162.7 373Z" fill="#BDBEC0"/>
<path class="dots" d="M237.9 373C244.307 373 249.5 367.807 249.5 361.4C249.5 354.994 244.307 349.8 237.9 349.8C231.494 349.8 226.3 354.994 226.3 361.4C226.3 367.807 231.494 373 237.9 373Z" fill="#BDBEC0"/>
<path class="dots" d="M313.2 373C319.607 373 324.8 367.807 324.8 361.4C324.8 354.994 319.607 349.8 313.2 349.8C306.794 349.8 301.6 354.994 301.6 361.4C301.6 367.807 306.794 373 313.2 373Z" fill="#BDBEC0"/>
<path class="dots" d="M388.4 373C394.807 373 400 367.807 400 361.4C400 354.994 394.807 349.8 388.4 349.8C381.994 349.8 376.8 354.994 376.8 361.4C376.8 367.807 381.994 373 388.4 373Z" fill="#BDBEC0"/>
<path class="dots" d="M463.6 373C470.006 373 475.2 367.807 475.2 361.4C475.2 354.994 470.006 349.8 463.6 349.8C457.193 349.8 452 354.994 452 361.4C452 367.807 457.193 373 463.6 373Z" fill="#BDBEC0"/>
<path class="dots" d="M538.9 373C545.307 373 550.5 367.807 550.5 361.4C550.5 354.994 545.307 349.8 538.9 349.8C532.494 349.8 527.3 354.994 527.3 361.4C527.3 367.807 532.494 373 538.9 373Z" fill="#BDBEC0"/>
<path class="dots" d="M614.1 373C620.506 373 625.7 367.807 625.7 361.4C625.7 354.994 620.506 349.8 614.1 349.8C607.693 349.8 602.5 354.994 602.5 361.4C602.5 367.807 607.693 373 614.1 373Z" fill="#BDBEC0"/>
<path class="dots" d="M689.3 373C695.707 373 700.9 367.807 700.9 361.4C700.9 354.994 695.707 349.8 689.3 349.8C682.894 349.8 677.7 354.994 677.7 361.4C677.7 367.807 682.894 373 689.3 373Z" fill="#BDBEC0"/>
<path class="dots" d="M764.6 373C771.006 373 776.2 367.807 776.2 361.4C776.2 354.994 771.006 349.8 764.6 349.8C758.193 349.8 753 354.994 753 361.4C753 367.807 758.193 373 764.6 373Z" fill="#BDBEC0"/>
<path class="dots" d="M839.8 373C846.207 373 851.4 367.807 851.4 361.4C851.4 354.994 846.207 349.8 839.8 349.8C833.394 349.8 828.2 354.994 828.2 361.4C828.2 367.807 833.394 373 839.8 373Z" fill="#BDBEC0"/>
<path class="dots" d="M915 373C921.407 373 926.6 367.807 926.6 361.4C926.6 354.994 921.407 349.8 915 349.8C908.593 349.8 903.4 354.994 903.4 361.4C903.4 367.807 908.593 373 915 373Z" fill="#BDBEC0"/>
<path class="dots" d="M12.2 431.1C18.6065 431.1 23.8 425.907 23.8 419.5C23.8 413.093 18.6065 407.9 12.2 407.9C5.79351 407.9 0.599976 413.093 0.599976 419.5C0.599976 425.907 5.79351 431.1 12.2 431.1Z" fill="#BDBEC0"/>
<path class="dots" d="M87.5 431.1C93.9065 431.1 99.1 425.907 99.1 419.5C99.1 413.093 93.9065 407.9 87.5 407.9C81.0935 407.9 75.9 413.093 75.9 419.5C75.9 425.907 81.0935 431.1 87.5 431.1Z" fill="#BDBEC0"/>
<path class="dots" d="M162.7 431.1C169.107 431.1 174.3 425.907 174.3 419.5C174.3 413.093 169.107 407.9 162.7 407.9C156.294 407.9 151.1 413.093 151.1 419.5C151.1 425.907 156.294 431.1 162.7 431.1Z" fill="#BDBEC0"/>
<path class="dots" d="M237.9 431.1C244.307 431.1 249.5 425.907 249.5 419.5C249.5 413.093 244.307 407.9 237.9 407.9C231.494 407.9 226.3 413.093 226.3 419.5C226.3 425.907 231.494 431.1 237.9 431.1Z" fill="#BDBEC0"/>
<path class="dots" d="M313.2 431.1C319.607 431.1 324.8 425.907 324.8 419.5C324.8 413.093 319.607 407.9 313.2 407.9C306.794 407.9 301.6 413.093 301.6 419.5C301.6 425.907 306.794 431.1 313.2 431.1Z" fill="#BDBEC0"/>
<path class="dots" d="M388.4 431.1C394.807 431.1 400 425.907 400 419.5C400 413.093 394.807 407.9 388.4 407.9C381.994 407.9 376.8 413.093 376.8 419.5C376.8 425.907 381.994 431.1 388.4 431.1Z" fill="#BDBEC0"/>
<path class="dots" d="M463.6 431.1C470.006 431.1 475.2 425.907 475.2 419.5C475.2 413.093 470.006 407.9 463.6 407.9C457.193 407.9 452 413.093 452 419.5C452 425.907 457.193 431.1 463.6 431.1Z" fill="#BDBEC0"/>
<path class="dots" d="M538.9 431.1C545.307 431.1 550.5 425.907 550.5 419.5C550.5 413.093 545.307 407.9 538.9 407.9C532.494 407.9 527.3 413.093 527.3 419.5C527.3 425.907 532.494 431.1 538.9 431.1Z" fill="#BDBEC0"/>
<path class="dots" d="M614.1 431.1C620.506 431.1 625.7 425.907 625.7 419.5C625.7 413.093 620.506 407.9 614.1 407.9C607.693 407.9 602.5 413.093 602.5 419.5C602.5 425.907 607.693 431.1 614.1 431.1Z" fill="#BDBEC0"/>
<path class="dots" d="M689.3 431.1C695.707 431.1 700.9 425.907 700.9 419.5C700.9 413.093 695.707 407.9 689.3 407.9C682.894 407.9 677.7 413.093 677.7 419.5C677.7 425.907 682.894 431.1 689.3 431.1Z" fill="#BDBEC0"/>
<path class="dots" d="M764.6 431.1C771.006 431.1 776.2 425.907 776.2 419.5C776.2 413.093 771.006 407.9 764.6 407.9C758.193 407.9 753 413.093 753 419.5C753 425.907 758.193 431.1 764.6 431.1Z" fill="#BDBEC0"/>
<path class="dots" d="M839.8 431.1C846.207 431.1 851.4 425.907 851.4 419.5C851.4 413.093 846.207 407.9 839.8 407.9C833.394 407.9 828.2 413.093 828.2 419.5C828.2 425.907 833.394 431.1 839.8 431.1Z" fill="#BDBEC0"/>
<path class="dots" d="M915 431.1C921.407 431.1 926.6 425.907 926.6 419.5C926.6 413.093 921.407 407.9 915 407.9C908.593 407.9 903.4 413.093 903.4 419.5C903.4 425.907 908.593 431.1 915 431.1Z" fill="#BDBEC0"/>
</svg>
