<svg width="524" height="379" viewBox="0 0 524 379" fill="none" xmlns="http://www.w3.org/2000/svg">
<path class="wave" d="M491.8 0.799988C480.8 0.799988 470.6 5.09999 462.8 12.8C453.4 22.2 438.2 22.2 428.9 12.8C412.9 -3.20001 386.9 -3.20001 370.9 12.8C361.5 22.2 346.3 22.2 337 12.8C329.3 5.09999 319 0.799988 308 0.799988C297 0.799988 286.8 5.09999 279 12.8C269.6 22.2 254.4 22.2 245.1 12.8C229.1 -3.20001 203.1 -3.20001 187.1 12.8C177.7 22.2 162.5 22.2 153.2 12.8C137.2 -3.20001 111.2 -3.20001 95.2 12.8C85.8 22.2 70.6 22.2 61.3 12.8C53.6 5.09999 43.3 0.799988 32.3 0.799988C21.3 0.799988 11.1 5.09999 3.29998 12.8C-1.83582e-05 16.1 -1.83582e-05 21.5 3.29998 24.8C6.59998 28.1 12 28.1 15.3 24.8C24.7 15.4 39.9 15.4 49.2 24.8C65.2 40.8 91.2 40.8 107.2 24.8C116.6 15.4 131.8 15.4 141.1 24.8C157.1 40.8 183.1 40.8 199.1 24.8C203.6 20.3 209.7 17.8 216.1 17.8C222.5 17.8 228.5 20.3 233.1 24.8C249.1 40.8 275.1 40.8 291.1 24.8C295.6 20.3 301.7 17.8 308.1 17.8C314.5 17.8 320.5 20.3 325.1 24.8C332.8 32.5 343.1 36.8 354.1 36.8C365.1 36.8 375.3 32.5 383.1 24.8C392.5 15.4 407.7 15.4 417 24.8C433 40.8 459 40.8 475 24.8C484.4 15.4 499.6 15.4 508.9 24.8C512.2 28.1 517.6 28.1 520.9 24.8C524.2 21.5 524.2 16.1 520.9 12.8C513.1 4.99999 502.8 0.799988 491.8 0.799988Z" fill="white"/>
<path class="wave" d="M491.8 86.2C480.8 86.2 470.6 90.5 462.8 98.2C453.4 107.6 438.2 107.6 428.9 98.2C412.9 82.2 386.9 82.2 370.9 98.2C361.5 107.6 346.3 107.6 337 98.2C329.3 90.5 319 86.2 308 86.2C297 86.2 286.8 90.5 279 98.2C269.6 107.6 254.4 107.6 245.1 98.2C229.1 82.2 203.1 82.2 187.1 98.2C177.7 107.6 162.5 107.6 153.2 98.2C137.2 82.2 111.2 82.2 95.2 98.2C85.8 107.6 70.6 107.6 61.3 98.2C53.6 90.5 43.3 86.2 32.3 86.2C21.3 86.2 11.1 90.5 3.29998 98.2C-1.83582e-05 101.5 -1.83582e-05 106.9 3.29998 110.2C6.59998 113.5 12 113.5 15.3 110.2C24.7 100.8 39.9 100.8 49.2 110.2C65.2 126.2 91.2 126.2 107.2 110.2C116.6 100.8 131.8 100.8 141.1 110.2C157.1 126.2 183.1 126.2 199.1 110.2C203.6 105.7 209.7 103.2 216.1 103.2C222.5 103.2 228.5 105.7 233.1 110.2C249.1 126.2 275.1 126.2 291.1 110.2C295.6 105.7 301.7 103.2 308.1 103.2C314.5 103.2 320.5 105.7 325.1 110.2C332.8 117.9 343.1 122.2 354.1 122.2C365.1 122.2 375.3 117.9 383.1 110.2C392.5 100.8 407.7 100.8 417 110.2C433 126.2 459 126.2 475 110.2C484.4 100.8 499.6 100.8 508.9 110.2C512.2 113.5 517.6 113.5 520.9 110.2C524.2 106.9 524.2 101.5 520.9 98.2C513.1 90.5 502.8 86.2 491.8 86.2Z" fill="white"/>
<path class="wave" d="M491.8 171.7C480.8 171.7 470.6 176 462.8 183.7C453.4 193.1 438.2 193.1 428.9 183.7C412.9 167.7 386.9 167.7 370.9 183.7C361.5 193.1 346.3 193.1 337 183.7C329.3 176 319 171.7 308 171.7C297 171.7 286.8 176 279 183.7C269.6 193.1 254.4 193.1 245.1 183.7C229.1 167.7 203.1 167.7 187.1 183.7C177.7 193.1 162.5 193.1 153.2 183.7C137.2 167.7 111.2 167.7 95.2 183.7C85.8 193.1 70.6 193.1 61.3 183.7C53.6 176 43.3 171.7 32.3 171.7C21.3 171.7 11.1 176 3.29998 183.7C-1.83582e-05 187 -1.83582e-05 192.4 3.29998 195.7C6.59998 199 12 199 15.3 195.7C24.7 186.3 39.9 186.3 49.2 195.7C65.2 211.7 91.2 211.7 107.2 195.7C116.6 186.3 131.8 186.3 141.1 195.7C157.1 211.7 183.1 211.7 199.1 195.7C203.6 191.2 209.7 188.7 216.1 188.7C222.5 188.7 228.5 191.2 233.1 195.7C249.1 211.7 275.1 211.7 291.1 195.7C295.6 191.2 301.7 188.7 308.1 188.7C314.5 188.7 320.5 191.2 325.1 195.7C332.8 203.4 343.1 207.7 354.1 207.7C365.1 207.7 375.3 203.4 383.1 195.7C392.5 186.3 407.7 186.3 417 195.7C433 211.7 459 211.7 475 195.7C484.4 186.3 499.6 186.3 508.9 195.7C512.2 199 517.6 199 520.9 195.7C524.2 192.4 524.2 187 520.9 183.7C513.1 176 502.8 171.7 491.8 171.7Z" fill="white"/>
<path class="wave" d="M491.8 257.2C480.8 257.2 470.6 261.5 462.8 269.2C453.4 278.6 438.2 278.6 428.9 269.2C412.9 253.2 386.9 253.2 370.9 269.2C361.5 278.6 346.3 278.6 337 269.2C329.3 261.5 319 257.2 308 257.2C297 257.2 286.8 261.5 279 269.2C269.6 278.6 254.4 278.6 245.1 269.2C229.1 253.2 203.1 253.2 187.1 269.2C177.7 278.6 162.5 278.6 153.2 269.2C137.2 253.2 111.2 253.2 95.2 269.2C85.8 278.6 70.6 278.6 61.3 269.2C53.6 261.5 43.3 257.2 32.3 257.2C21.3 257.2 11.1 261.5 3.29998 269.2C-1.83582e-05 272.5 -1.83582e-05 277.9 3.29998 281.2C6.59998 284.5 12 284.5 15.3 281.2C24.7 271.8 39.9 271.8 49.2 281.2C65.2 297.2 91.2 297.2 107.2 281.2C116.6 271.8 131.8 271.8 141.1 281.2C157.1 297.2 183.1 297.2 199.1 281.2C203.6 276.7 209.7 274.2 216.1 274.2C222.5 274.2 228.5 276.7 233.1 281.2C249.1 297.2 275.1 297.2 291.1 281.2C295.6 276.7 301.7 274.2 308.1 274.2C314.5 274.2 320.5 276.7 325.1 281.2C332.8 288.9 343.1 293.2 354.1 293.2C365.1 293.2 375.3 288.9 383.1 281.2C392.5 271.8 407.7 271.8 417 281.2C433 297.2 459 297.2 475 281.2C484.4 271.8 499.6 271.8 508.9 281.2C512.2 284.5 517.6 284.5 520.9 281.2C524.2 277.9 524.2 272.5 520.9 269.2C513.1 261.4 502.8 257.2 491.8 257.2Z" fill="white"/>
<path class="wave" d="M491.8 342.6C480.8 342.6 470.6 346.9 462.8 354.6C453.4 364 438.2 364 428.9 354.6C412.9 338.6 386.9 338.6 370.9 354.6C361.5 364 346.3 364 337 354.6C329.3 346.9 319 342.6 308 342.6C297 342.6 286.8 346.9 279 354.6C269.6 364 254.4 364 245.1 354.6C229.1 338.6 203.1 338.6 187.1 354.6C177.7 364 162.5 364 153.2 354.6C137.2 338.6 111.2 338.6 95.2 354.6C85.8 364 70.6 364 61.3 354.6C53.6 346.9 43.3 342.6 32.3 342.6C21.3 342.6 11.1 346.9 3.29998 354.6C-1.83582e-05 357.9 -1.83582e-05 363.3 3.29998 366.6C6.59998 369.9 12 369.9 15.3 366.6C24.7 357.2 39.9 357.2 49.2 366.6C65.2 382.6 91.2 382.6 107.2 366.6C116.6 357.2 131.8 357.2 141.1 366.6C157.1 382.6 183.1 382.6 199.1 366.6C203.6 362.1 209.7 359.6 216.1 359.6C222.5 359.6 228.5 362.1 233.1 366.6C249.1 382.6 275.1 382.6 291.1 366.6C295.6 362.1 301.7 359.6 308.1 359.6C314.5 359.6 320.5 362.1 325.1 366.6C332.8 374.3 343.1 378.6 354.1 378.6C365.1 378.6 375.3 374.3 383.1 366.6C392.5 357.2 407.7 357.2 417 366.6C433 382.6 459 382.6 475 366.6C484.4 357.2 499.6 357.2 508.9 366.6C512.2 369.9 517.6 369.9 520.9 366.6C524.2 363.3 524.2 357.9 520.9 354.6C513.1 346.9 502.8 342.6 491.8 342.6Z" fill="white"/>
</svg>
